<svg xmlns="http://www.w3.org/2000/svg" viewBox="0 0 7.81 10.26"><defs><style>.cls-1{fill:#6d1140;}</style></defs><g id="Layer_2" data-name="Layer 2"><g id="Layer_15" data-name="Layer 15"><g id="About_Myself" data-name="About Myself"><path class="cls-1" d="M4.68,6.25a1.15,1.15,0,0,0,.38-1,1.16,1.16,0,1,0-2,1,2.58,2.58,0,0,0-.9,1.5.4.4,0,0,0,.38.5H5.25a.4.4,0,0,0,.38-.51A2.56,2.56,0,0,0,4.68,6.25ZM3.52,5.32A.4.4,0,0,1,3.85,5,.39.39,0,0,1,4,5.78.4.4,0,0,1,3.52,5.32ZM3.08,7.44c.16-.36.39-.67.71-.67a1,1,0,0,1,.91.65v0Z"/><path class="cls-1" d="M6.25,1.14H5V.48A.47.47,0,0,0,4.56,0H3.26a.47.47,0,0,0-.48.48v.66H1.56A1.56,1.56,0,0,0,0,2.7v6a1.56,1.56,0,0,0,1.56,1.56H6.25A1.56,1.56,0,0,0,7.81,8.7v-6A1.56,1.56,0,0,0,6.25,1.14ZM3.55.77h.72V2.36a.36.36,0,0,1-.36.36.36.36,0,0,1-.36-.36ZM7,8.7a.79.79,0,0,1-.79.79H1.56A.79.79,0,0,1,.77,8.7v-6a.79.79,0,0,1,.79-.79H2.78v.45A1.12,1.12,0,0,0,3.91,3.49a1.08,1.08,0,0,0,.79-.33A1.08,1.08,0,0,0,5,2.36V1.91H6.25A.79.79,0,0,1,7,2.7Z"/><path class="cls-1" d="M4.27.77V2.36a.36.36,0,0,1-.36.36.36.36,0,0,1-.36-.36V.77Z"/></g></g></g></svg>