<svg xmlns="http://www.w3.org/2000/svg" viewBox="0 0 9.13 10.19"><defs><style>.cls-1{fill:#6d1140;}</style></defs><g id="Layer_2" data-name="Layer 2"><g id="Layer_15" data-name="Layer 15"><g id="Basic_Details" data-name="Basic Details"><path class="cls-1" d="M.77,8.77V1.41A.64.64,0,0,1,1.41.77H6.55a.65.65,0,0,1,.65.64V4.2H8V1.41A1.42,1.42,0,0,0,6.55,0H1.41A1.41,1.41,0,0,0,0,1.41V8.77a1.41,1.41,0,0,0,1.41,1.42h1.8V9.42H1.41A.65.65,0,0,1,.77,8.77Z"/><rect class="cls-1" x="1.63" y="2.35" width="4.62" height="0.77"/><rect class="cls-1" x="1.63" y="3.98" width="4.62" height="0.77"/><rect class="cls-1" x="1.63" y="5.52" width="3.17" height="0.77"/><path class="cls-1" d="M9,6.39,7.91,5.24a.37.37,0,0,0-.52,0L4.88,7.74a.45.45,0,0,0-.11.19L4.33,9.57a.31.31,0,0,0,.29.39h.06l1.62-.3a.56.56,0,0,0,.24-.13L9,6.9A.36.36,0,0,0,9,6.39Zm-3,2.52-.79.15.23-.84L6.72,7l.6.6ZM7.85,7l-.58-.58.37-.37.57.58Z"/><polygon class="cls-1" points="7.32 7.58 6.05 8.91 5.26 9.06 5.49 8.22 6.72 6.98 7.32 7.58"/></g></g></g></svg>