<svg xmlns="http://www.w3.org/2000/svg" viewBox="0 0 5.43 4.88"><defs><style>.cls-1{fill:#6d1140;}</style></defs><g id="Layer_2" data-name="Layer 2"><g id="Layer_53" data-name="Layer 53"><path class="cls-1" d="M5.42,4.66l-.25-.74a.2.2,0,0,1,0-.13,1.94,1.94,0,0,0-1.1-2.72,2.24,2.24,0,0,1,.13,1.31A2.27,2.27,0,0,1,2.39,4.19L2,4.22a1.84,1.84,0,0,0,1.07.59,1.89,1.89,0,0,0,1.23-.17.15.15,0,0,1,.13,0l.75.25A.17.17,0,0,0,5.42,4.66Z"/><path class="cls-1" d="M1.6,0A2,2,0,0,0,.06,1.59,1.93,1.93,0,0,0,.25,2.83.17.17,0,0,1,.26,3L0,3.7a.17.17,0,0,0,.21.21L1,3.66a.17.17,0,0,1,.12,0,1.93,1.93,0,0,0,1.24.18A1.94,1.94,0,1,0,1.6,0Z"/></g></g></svg>