<svg xmlns="http://www.w3.org/2000/svg" viewBox="0 0 18.41 16.88"><defs><style>.cls-1{fill:#6d1140;}</style></defs><g id="Layer_2" data-name="Layer 2"><g id="Layer_23" data-name="Layer 23"><path class="cls-1" d="M0,11.73C.34,10.6.67,9.48,1,8.36c.27-.92.55-1.83.82-2.75a.29.29,0,0,1,.08-.14v.19c0,1.6,0,3.21,0,4.82a2.86,2.86,0,0,0,1.52,2.61,3,3,0,0,0,1.47.34h11c0,.07,0,.12-.05.17-.21.68-.42,1.36-.64,2a1.7,1.7,0,0,1-2.14,1.17L4.38,14.48l-3-.8A1.75,1.75,0,0,1,0,12.27l0,0Z"/><path class="cls-1" d="M10.73,12.28H5.07a1.9,1.9,0,0,1-1.95-1.5,2.29,2.29,0,0,1-.05-.52q0-4.11,0-8.22a1.93,1.93,0,0,1,2-2H16.38a1.92,1.92,0,0,1,2,2v8.25a1.91,1.91,0,0,1-2,2Zm6.12-4.94c0-.06,0-.08,0-.1V2c0-.28-.15-.41-.45-.41H5.06c-.32,0-.46.13-.46.46V9s0,.1,0,.15l0,0A.93.93,0,0,1,4.78,9l1.9-1.91A1.36,1.36,0,0,1,8,6.69a1.49,1.49,0,0,1,.68.41L9.54,8l.17-.21,2.6-3.12a1.36,1.36,0,0,1,2.22,0c.18.2.35.41.53.62Z"/><path class="cls-1" d="M6.89,5.37A1.54,1.54,0,1,1,8.44,3.85,1.54,1.54,0,0,1,6.89,5.37Z"/></g></g></svg>