<svg xmlns="http://www.w3.org/2000/svg" viewBox="0 0 5.33 6.4"><defs><style>.cls-1{fill:#6d1140;}</style></defs><g id="Layer_2" data-name="Layer 2"><g id="Layer_67" data-name="Layer 67"><path class="cls-1" d="M5.07,1.07H4.24A1.34,1.34,0,0,0,2.93,0H2.4A1.35,1.35,0,0,0,1.09,1.07H.27a.27.27,0,1,0,0,.53H.53V5.07A1.34,1.34,0,0,0,1.87,6.4h1.6A1.34,1.34,0,0,0,4.8,5.07V1.6h.27a.27.27,0,0,0,0-.53ZM2.4,4.53a.27.27,0,1,1-.53,0V2.93a.27.27,0,0,1,.53,0v1.6Zm1.07,0a.27.27,0,0,1-.54,0V2.93a.27.27,0,0,1,.54,0ZM1.65,1.07A.8.8,0,0,1,2.4.53h.53a.82.82,0,0,1,.76.54Z"/></g></g></svg>