<svg xmlns="http://www.w3.org/2000/svg" viewBox="0 0 10.07 11.24"><defs><style>.cls-1{fill:#fff;}</style></defs><g id="Layer_2" data-name="Layer 2"><g id="Layer_13" data-name="Layer 13"><path class="cls-1" d="M.85,9.68V1.56A.71.71,0,0,1,1.56.85H7.22a.71.71,0,0,1,.72.71V4.63h.84V1.56A1.56,1.56,0,0,0,7.22,0H1.56A1.56,1.56,0,0,0,0,1.56V9.68a1.56,1.56,0,0,0,1.56,1.56h2v-.85h-2A.71.71,0,0,1,.85,9.68Z"/><rect class="cls-1" x="1.8" y="2.6" width="5.09" height="0.85"/><rect class="cls-1" x="1.8" y="4.39" width="5.09" height="0.85"/><rect class="cls-1" x="1.8" y="6.09" width="3.49" height="0.85"/><path class="cls-1" d="M10,7.05,8.72,5.78a.42.42,0,0,0-.29-.12.44.44,0,0,0-.29.11L5.38,8.54a.45.45,0,0,0-.12.21l-.49,1.81A.34.34,0,0,0,5.1,11h.06L7,10.64a.51.51,0,0,0,.26-.14L10,7.62A.41.41,0,0,0,10,7.05ZM6.67,9.83,5.8,10l.25-.92L7.41,7.7l.66.66Zm2-2.08L8,7.1l.41-.41.63.65Z"/></g></g></svg>