<svg xmlns="http://www.w3.org/2000/svg" viewBox="0 0 10.81 10.81"><defs><style>.cls-1{fill:#6d1140;}</style></defs><g id="Layer_2" data-name="Layer 2"><g id="Layer_15" data-name="Layer 15"><g id="Horoscope"><path class="cls-1" d="M5.07,0h.68l.09,0A4.82,4.82,0,0,1,7.51.43,5.38,5.38,0,0,1,10.73,4.5a5.58,5.58,0,0,1,.08.57v.68c0,.19-.05.38-.08.58a5.44,5.44,0,0,1-4.39,4.4l-.59.08H5.07l-.21,0a5.28,5.28,0,0,1-2.64-1A5.4,5.4,0,0,1,.08,6.34c0-.2,0-.4-.08-.59V5.07A.31.31,0,0,0,0,5a5.18,5.18,0,0,1,1-2.78A5.34,5.34,0,0,1,4.49.08Zm2,5.61-.65.1a.65.65,0,0,1-.72-.48.62.62,0,0,1,.35-.71l.57-.3c-.31-.12-.58-.25-.87-.35a1.42,1.42,0,0,0-.68,0,1.59,1.59,0,0,0-.27,3,1.56,1.56,0,0,0,1.82-.53C6.83,6.13,7,5.88,7.11,5.61ZM1.75,8.43l1-1.9-2-.68A4.68,4.68,0,0,0,1.75,8.43ZM6.53,2.7l1.91-1A4.77,4.77,0,0,0,5.85.66ZM.66,5l2-.67-1-1.91A4.74,4.74,0,0,0,.66,5ZM6.53,8.11l-.68,2.05A4.82,4.82,0,0,0,8.43,9.07ZM5,.66A4.67,4.67,0,0,0,2.39,1.75l1.9,1ZM10.15,5A4.59,4.59,0,0,0,9.06,2.4l-1,1.89Zm-2,1.57,1,1.9a4.62,4.62,0,0,0,1.08-2.57ZM4.29,8.11l-1.91,1A4.81,4.81,0,0,0,5,10.16Z"/><path class="cls-1" d="M5.24,4.49a1.28,1.28,0,0,0,.58,1.76.91.91,0,0,1-1-.08A1,1,0,0,1,4.51,5.1.88.88,0,0,1,5.24,4.49Z"/></g></g></g></svg>