<svg xmlns="http://www.w3.org/2000/svg" viewBox="0 0 17.79 16.52"><defs><style>.cls-1{fill:#6d1140;}</style></defs><g id="Layer_2" data-name="Layer 2"><g id="Layer_6" data-name="Layer 6"><path class="cls-1" d="M16.94,4.66,9.94.3A2,2,0,0,0,7.85.3l-7,4.36A1.8,1.8,0,0,0,0,6.18v8.53a1.83,1.83,0,0,0,1.85,1.81H15.94a1.83,1.83,0,0,0,1.85-1.81V6.18A1.8,1.8,0,0,0,16.94,4.66ZM6.62,11.86,2.29,15.24a.63.63,0,0,1-.37.12.62.62,0,0,1-.48-.23.59.59,0,0,1,.11-.84l4.33-3.38a.6.6,0,0,1,.84.11A.59.59,0,0,1,6.62,11.86Zm1.7-1.41L2.84,6.56a.75.75,0,0,1,.45-1.37H14.5A.76.76,0,0,1,15,6.56L9.47,10.45A1,1,0,0,1,8.32,10.45Zm8,4.68a.6.6,0,0,1-.47.23.63.63,0,0,1-.37-.12l-4.34-3.38a.6.6,0,0,1,.74-.95l4.34,3.38A.59.59,0,0,1,16.35,15.13Z"/></g></g></svg>