<svg xmlns="http://www.w3.org/2000/svg" viewBox="0 0 11.59 11.58"><defs><style>.cls-1{fill:#6d1140;}</style></defs><g id="Layer_2" data-name="Layer 2"><g id="Layer_15" data-name="Layer 15"><g id="Partner"><circle class="cls-1" cx="4.34" cy="2.9" r="2.9"/><path class="cls-1" d="M4.34,7.56a3.55,3.55,0,0,1,3.53,3.22H.81A3.56,3.56,0,0,1,4.34,7.56m0-.8A4.34,4.34,0,0,0,0,11.1a.48.48,0,0,0,.48.48H8.21a.48.48,0,0,0,.48-.48A4.34,4.34,0,0,0,4.34,6.76Z"/><path class="cls-1" d="M10.62,3.8a1,1,0,0,0-1,1.06,1,1,0,0,0-1-1.06,1,1,0,0,0-1,1.06c0,.84,1.09,1.82,1.63,2.25a.48.48,0,0,0,.6,0c.55-.43,1.63-1.41,1.63-2.25A1,1,0,0,0,10.62,3.8Z"/></g></g></g></svg>