<svg xmlns="http://www.w3.org/2000/svg" viewBox="0 0 25.91 6.87"><defs><style>.cls-1{fill:#fff;}</style></defs><g id="Layer_2" data-name="Layer 2"><g id="Layer_52" data-name="Layer 52"><path class="cls-1" d="M2.28,0c.39,0,.78,0,1.17,0a1.36,1.36,0,0,1,1.2.63,1.54,1.54,0,0,1,.18.56,2.7,2.7,0,0,1-.29,1.5,1.81,1.81,0,0,1-1.64,1h-1c-.21,0-.28,0-.32.26s-.11.64-.16,1l-.06.38c0,.2-.12.26-.32.26H.26C0,5.56,0,5.49,0,5.27s.09-.61.14-.92c.13-.8.26-1.61.38-2.42C.62,1.4.7.88.78.35A.83.83,0,0,1,.82.2.25.25,0,0,1,1.1,0H2.28ZM1.8,2.63h.88a.74.74,0,0,0,.58-.44,1.82,1.82,0,0,0,.11-.4.57.57,0,0,0-.62-.7H2.22c-.17,0-.18,0-.2.18C1.94,1.71,1.87,2.16,1.8,2.63Z"/><path class="cls-1" d="M16.83,3.7h-.52c-.19,0-.26,0-.3.24s-.1.63-.16.95c0,.14,0,.29-.07.43a.26.26,0,0,1-.3.24h-.86c-.16,0-.23-.08-.21-.25.14-.87.28-1.75.41-2.62L15.18.43a.68.68,0,0,1,0-.14c.05-.22.13-.29.36-.29h2.16a1.88,1.88,0,0,1,.87.2,1.17,1.17,0,0,1,.65,1A2.6,2.6,0,0,1,18.74,3a1.8,1.8,0,0,1-1.42.68Zm-.38-2.61-.24,1.54H17l.16,0a.72.72,0,0,0,.5-.35,1.18,1.18,0,0,0,.15-.61.53.53,0,0,0-.49-.56C17,1.07,16.74,1.09,16.45,1.09Z"/><path class="cls-1" d="M22.39,2.32a2,2,0,0,1,.05-.24c0-.19.06-.21.24-.21h.77c.17,0,.21,0,.19.21s-.1.62-.15.94l-.36,2.25a.75.75,0,0,1,0,.16.17.17,0,0,1-.18.13c-.29,0-.57,0-.86,0-.11,0-.15,0-.14-.17l0-.27,0,0-.17.12a1.7,1.7,0,0,1-1.82.34A1.36,1.36,0,0,1,19,4.29,2.29,2.29,0,0,1,20.12,2a2.1,2.1,0,0,1,1.59-.24.78.78,0,0,1,.59.46s0,0,.05.07ZM21.08,4.69a1.2,1.2,0,0,0,1.13-.87.83.83,0,0,0-.83-1.07,1.19,1.19,0,0,0-1.12.86A.83.83,0,0,0,21.08,4.69Z"/><path class="cls-1" d="M7.5,5.1a1.67,1.67,0,0,0-.16.12,1.71,1.71,0,0,1-1.8.35,1.48,1.48,0,0,1-1-1.47,2.36,2.36,0,0,1,1-2,2.13,2.13,0,0,1,1.76-.35.76.76,0,0,1,.6.45l0,.06.05,0a2.38,2.38,0,0,0,0-.26c0-.16.06-.19.22-.19H9c.17,0,.22.06.19.24-.06.41-.13.83-.2,1.25l-.3,1.89a.53.53,0,0,1-.05.19s-.11.12-.17.12c-.29,0-.58,0-.87,0a.12.12,0,0,1-.14-.14l0-.3Zm.33-1.51a.81.81,0,0,0-.7-.83,1.18,1.18,0,0,0-1.29.89.83.83,0,0,0,.63,1A1.17,1.17,0,0,0,7.83,3.59Z"/><path class="cls-1" d="M11.74,4l.34-.48c.32-.47.65-.93,1-1.4a.46.46,0,0,1,.44-.23c.25,0,.49,0,.74,0,.07,0,.17,0,.19.08a.29.29,0,0,1,0,.22l-.62.9c-.85,1.2-1.69,2.39-2.53,3.6a.42.42,0,0,1-.4.2H10a.23.23,0,0,1-.18-.08.25.25,0,0,1,0-.18l.9-1.26A.31.31,0,0,0,10.82,5l-1-2.82c-.08-.24,0-.34.24-.34h.72c.24,0,.3,0,.37.26.17.59.35,1.17.53,1.75Z"/><path class="cls-1" d="M24.44,5.57H24c-.12,0-.16-.05-.14-.17.18-1.1.35-2.19.53-3.29L24.67.2c0-.14.07-.19.22-.19h.87c.13,0,.17,0,.15.18-.16,1-.31,2-.47,3-.12.74-.24,1.49-.35,2.23,0,.16-.07.2-.23.2Z"/></g></g></svg>