<svg xmlns="http://www.w3.org/2000/svg" viewBox="0 0 11.03 11.02"><defs><style>.cls-1{fill:#fff;}</style></defs><g id="Layer_2" data-name="Layer 2"><g id="Layer_13" data-name="Layer 13"><path class="cls-1" d="M9.48,2.07H7.56V1.71A1.72,1.72,0,0,0,5.85,0H5.27a1.71,1.71,0,0,0-1.7,1.71v.36h-2A1.54,1.54,0,0,0,0,3.61V9.47A1.54,1.54,0,0,0,1.54,11H9.48A1.55,1.55,0,0,0,11,9.47V3.61A1.55,1.55,0,0,0,9.48,2.07ZM4.42,1.71A.85.85,0,0,1,5.27.86h.58a.85.85,0,0,1,.85.85v.36H4.42ZM1.54,2.93H9.48a.68.68,0,0,1,.69.68V4H.86v-.4A.67.67,0,0,1,1.54,2.93Zm7.94,7.23H4.12V7H3.27v3.15H1.54a.68.68,0,0,1-.68-.69V4.87H3.27V6.4h.85V4.87h6.05v4.6A.69.69,0,0,1,9.48,10.16Z"/></g></g></svg>