<svg xmlns="http://www.w3.org/2000/svg" viewBox="0 0 8.4 10.25"><defs><style>.cls-1{fill:#6d1140;}</style></defs><g id="Layer_2" data-name="Layer 2"><g id="Layer_15" data-name="Layer 15"><g id="Religion"><path class="cls-1" d="M8.4,5.5V1.08H6.81A1.94,1.94,0,0,0,5,0H4.64V1.06H1.38A1.38,1.38,0,0,0,0,2.44V9a1.22,1.22,0,0,0,1.22,1.21H8.4V9.48H1.22A.45.45,0,0,1,.77,9V8.57H8.4V6.63H7.63V7.8H6.82V1.85h.81V5.5ZM6.05,7.8H2.36V2.51H1.59V7.8H.77V2.44a.61.61,0,0,1,.61-.61H4.64V6.65H6.05Zm0-1.92H5.41V.82a1.07,1.07,0,0,1,.64.48Z"/><path class="cls-1" d="M6.05,1.3V5.88H5.41V.82A1.07,1.07,0,0,1,6.05,1.3Z"/></g></g></g></svg>