<svg xmlns="http://www.w3.org/2000/svg" viewBox="0 0 10.92 10.93"><defs><style>.cls-1{fill:#fff;}</style></defs><g id="Layer_2" data-name="Layer 2"><g id="Layer_13" data-name="Layer 13"><path class="cls-1" d="M5.14,0H5.8l.09,0c.28,0,.57.07.85.13a5.47,5.47,0,0,1,4.1,4.36c0,.21.06.41.08.61v.69s0,.06,0,.09c-.05.3-.08.6-.15.89A5.46,5.46,0,1,1,.34,3.59a9.4,9.4,0,0,1,.43-1A1.06,1.06,0,0,1,.64,1.12,1.1,1.1,0,0,1,1.31.75a1.08,1.08,0,0,1,.9.32l.06,0A5.29,5.29,0,0,1,4.45.1C4.68.05,4.91,0,5.14,0ZM.62,5.45c0,.32.05.64.12,1a4.81,4.81,0,0,0,9.5-1.54A4.68,4.68,0,0,0,8.47,1.7a4.7,4.7,0,0,0-3.38-1,4.6,4.6,0,0,0-2.52,1,.15.15,0,0,0-.07.12,1,1,0,0,1-1,1.11.15.15,0,0,0-.14.08A5.07,5.07,0,0,0,.62,5.45ZM1.86,1.8a.41.41,0,0,0-.41-.41A.4.4,0,0,0,1,1.8a.41.41,0,1,0,.82,0Z"/><path class="cls-1" d="M5.38,1.56A4,4,0,0,1,9.31,4.82,3.9,3.9,0,0,1,6,9.32a3.72,3.72,0,0,1-1.2,0,.2.2,0,0,0-.21.07,1,1,0,0,1-1.78-.92.17.17,0,0,0-.06-.16A3.83,3.83,0,0,1,1.6,5,3.88,3.88,0,0,1,4.9,1.61C5.08,1.58,5.27,1.57,5.38,1.56ZM4.94,8.67a3.24,3.24,0,1,0-1.72-.85,1.06,1.06,0,0,1,1.72.85Zm-.65,0a.41.41,0,1,0-.41.4A.39.39,0,0,0,4.29,8.65Z"/><path class="cls-1" d="M5.46,7.77a2.3,2.3,0,1,1,1-4.39.3.3,0,0,0,.16,0,1,1,0,0,1,1,.39,1,1,0,0,1,.14,1.07.32.32,0,0,0,0,.19A2.31,2.31,0,0,1,5.46,7.77Zm.44-3.9a1.63,1.63,0,0,0-1.76.59,1.66,1.66,0,1,0,3,1,1,1,0,0,1-1.18-.39A1.05,1.05,0,0,1,5.9,3.87Zm.48.57a.41.41,0,0,0,.41.42.42.42,0,0,0,.42-.42A.43.43,0,0,0,6.8,4,.41.41,0,0,0,6.38,4.44Z"/></g></g></svg>