<svg xmlns="http://www.w3.org/2000/svg" xmlns:xlink="http://www.w3.org/1999/xlink" viewBox="0 0 7.26 4.85"><defs><style>.cls-1{fill:url(#linear-gradient);}.cls-2{fill:url(#linear-gradient-2);}.cls-3{fill:url(#linear-gradient-3);}.cls-4{fill:url(#linear-gradient-4);}.cls-5{fill:url(#linear-gradient-5);}</style><linearGradient id="linear-gradient" x1="0.85" y1="2.72" x2="6.38" y2="2.72" gradientUnits="userSpaceOnUse"><stop offset="0" stop-color="#b69972"/><stop offset="0.06" stop-color="#b09468"/><stop offset="0.22" stop-color="#a3894f"/><stop offset="0.38" stop-color="#9b8240"/><stop offset="0.5" stop-color="#98803b"/><stop offset="0.63" stop-color="#9b8240"/><stop offset="0.78" stop-color="#a2894e"/><stop offset="0.94" stop-color="#af9564"/><stop offset="1" stop-color="#b59a6f"/></linearGradient><linearGradient id="linear-gradient-2" x1="1.2" y1="4.72" x2="6.06" y2="4.72" xlink:href="#linear-gradient"/><linearGradient id="linear-gradient-3" x1="3.08" y1="0.54" x2="4.18" y2="0.54" xlink:href="#linear-gradient"/><linearGradient id="linear-gradient-4" x1="0" y1="0.81" x2="1.1" y2="0.81" xlink:href="#linear-gradient"/><linearGradient id="linear-gradient-5" x1="6.17" y1="0.77" x2="7.26" y2="0.77" xlink:href="#linear-gradient"/></defs><g id="Layer_2" data-name="Layer 2"><g id="Layer_13" data-name="Layer 13"><path class="cls-1" d="M4.73,2.59l1-.9c.13-.12.26-.24.4-.35a.2.2,0,0,1,.18,0s.06.12,0,.17c-.14.86-.3,1.72-.45,2.58a.17.17,0,0,1-.19.17H1.53a.17.17,0,0,1-.19-.16C1.18,3.22,1,2.37.85,1.52a.21.21,0,0,1,.06-.18s.14,0,.19,0L2.39,2.54l.1.09.09-.09.88-1.18c.14-.19.2-.19.34,0l.82,1.09Z"/><path class="cls-2" d="M3.64,4.6H5.85a.25.25,0,0,1,.15,0,.13.13,0,0,1,0,.12s0,.08-.09.1a.29.29,0,0,1-.13,0H1.37c-.09,0-.16,0-.17-.12s.07-.14.17-.13H3.64Z"/><path class="cls-3" d="M4.18.54a.55.55,0,0,1-.55.55A.56.56,0,0,1,3.08.53a.55.55,0,0,1,1.1,0Z"/><path class="cls-4" d="M1.1.8a.54.54,0,0,1-.55.55A.55.55,0,0,1,0,.8.55.55,0,0,1,.54.26.56.56,0,0,1,1.1.8Z"/><path class="cls-5" d="M6.71,1.31A.52.52,0,0,1,6.17.77a.55.55,0,1,1,.54.54Z"/></g></g></svg>