<svg xmlns="http://www.w3.org/2000/svg" xmlns:xlink="http://www.w3.org/1999/xlink" viewBox="0 0 17.4 17.15"><defs><style>.cls-1{fill:#6d1140;}.cls-2{fill:url(#linear-gradient);}.cls-3{fill:url(#linear-gradient-2);}.cls-4{fill:url(#linear-gradient-3);}.cls-5{fill:url(#linear-gradient-4);}.cls-6{fill:url(#linear-gradient-5);}</style><linearGradient id="linear-gradient" x1="5.27" y1="8.93" x2="12.07" y2="8.93" gradientUnits="userSpaceOnUse"><stop offset="0" stop-color="#b69972"/><stop offset="0.06" stop-color="#b09468"/><stop offset="0.22" stop-color="#a3894f"/><stop offset="0.38" stop-color="#9b8240"/><stop offset="0.5" stop-color="#98803b"/><stop offset="0.63" stop-color="#9b8240"/><stop offset="0.78" stop-color="#a2894e"/><stop offset="0.94" stop-color="#af9564"/><stop offset="1" stop-color="#b59a6f"/></linearGradient><linearGradient id="linear-gradient-2" x1="5.71" y1="11.4" x2="11.68" y2="11.4" xlink:href="#linear-gradient"/><linearGradient id="linear-gradient-3" x1="8.02" y1="6.25" x2="9.37" y2="6.25" xlink:href="#linear-gradient"/><linearGradient id="linear-gradient-4" x1="4.23" y1="6.58" x2="5.58" y2="6.58" xlink:href="#linear-gradient"/><linearGradient id="linear-gradient-5" x1="11.82" y1="6.53" x2="13.16" y2="6.53" xlink:href="#linear-gradient"/></defs><g id="Layer_2" data-name="Layer 2"><g id="Layer_50" data-name="Layer 50"><path class="cls-1" d="M17.4,7.56v0l-.07,0L16,9.14c-.08.08,0,.14,0,.22l.9,1.63.09.16-.12.06-1.74.8a.2.2,0,0,0-.13.23l.09.95c0,.35.05.71.08,1.07H15l-1.87,0a.19.19,0,0,0-.22.16c-.07.25-.16.49-.25.74s-.28.78-.41,1.17l-.16-.06c-.56-.23-1.13-.46-1.69-.71a.26.26,0,0,0-.35.08L8.88,16.94l-.2.21A1,1,0,0,0,8.57,17c-.43-.46-.87-.91-1.29-1.37a.17.17,0,0,0-.22-.05L6.19,16l-1.05.43-.08-.21c-.2-.57-.4-1.13-.59-1.7a.19.19,0,0,0-.22-.16l-1.86,0H2.21a.74.74,0,0,1,0-.15c0-.59.09-1.18.16-1.77a.3.3,0,0,0-.2-.37c-.54-.23-1.07-.48-1.6-.73l-.18-.1A1,1,0,0,1,.47,11c.3-.54.59-1.08.9-1.62a.19.19,0,0,0,0-.27C.89,8.6.45,8.09,0,7.57l.14-.11c.5-.37,1-.75,1.5-1.12a.19.19,0,0,0,.08-.25C1.53,5.5,1.35,4.9,1.17,4.3a.83.83,0,0,0,0-.15l.1,0,1.91-.44c.08,0,.14,0,.16-.14.05-.47.11-.93.17-1.4l.09-.67,2,.38a.18.18,0,0,0,.23-.1c.26-.44.54-.88.8-1.32L6.88,0C7.43.38,8,.74,8.49,1.12a.3.3,0,0,0,.42,0L10.51,0l.11.16,1,1.57c.06.11.12.16.26.12s.57-.11.85-.17l1.15-.21a.65.65,0,0,1,0,.11c.09.64.17,1.28.24,1.93a.19.19,0,0,0,.16.17L15.46,4l.81.19c-.2.67-.4,1.31-.6,2a.18.18,0,0,0,.07.23ZM10.05,8.77,9.92,8.6c-.34-.44-.68-.89-1-1.34-.18-.23-.25-.23-.42,0-.36.48-.73,1-1.09,1.45l-.1.12-.14-.12c-.52-.48-1-1-1.58-1.42a.26.26,0,0,0-.23-.06.24.24,0,0,0-.07.22c.19,1,.4,2.09.6,3.13a.2.2,0,0,0,.23.19h5.17a.22.22,0,0,0,.24-.2c.18-1.06.37-2.11.55-3.17A.27.27,0,0,0,12,7.18a.31.31,0,0,0-.22.05c-.17.13-.33.29-.49.43ZM8.71,11.24H5.91c-.12,0-.21,0-.2.16s.09.16.2.15H11.4s.12,0,.16,0a.2.2,0,0,0,.12-.12.18.18,0,0,0-.07-.15.34.34,0,0,0-.18,0Zm.66-5a.68.68,0,1,0-.68.67A.67.67,0,0,0,9.37,6.25Zm-3.79.32a.68.68,0,1,0-.67.68A.67.67,0,0,0,5.58,6.57Zm6.91.63a.66.66,0,0,0,.67-.67.68.68,0,0,0-.66-.67.67.67,0,0,0-.68.67A.65.65,0,0,0,12.49,7.2Z"/><path class="cls-2" d="M10.05,8.77l1.24-1.11c.16-.14.32-.3.49-.43A.31.31,0,0,1,12,7.18a.27.27,0,0,1,.07.22c-.18,1.06-.37,2.11-.55,3.17a.22.22,0,0,1-.24.2H6.11a.2.2,0,0,1-.23-.19c-.2-1-.41-2.08-.6-3.13a.24.24,0,0,1,.07-.22.26.26,0,0,1,.23.06c.53.47,1.06.94,1.58,1.42l.14.12.1-.12c.36-.49.73-1,1.09-1.45.17-.23.24-.23.42,0,.33.45.67.9,1,1.34Z"/><path class="cls-3" d="M8.71,11.24h2.72a.34.34,0,0,1,.18,0,.18.18,0,0,1,.07.15.2.2,0,0,1-.12.12s-.11,0-.16,0H5.91c-.11,0-.2,0-.2-.15s.08-.16.2-.16h2.8Z"/><path class="cls-4" d="M9.37,6.25a.68.68,0,1,1-.68-.67A.67.67,0,0,1,9.37,6.25Z"/><path class="cls-5" d="M5.58,6.57a.68.68,0,1,1-.69-.66A.67.67,0,0,1,5.58,6.57Z"/><path class="cls-6" d="M12.49,7.2a.65.65,0,0,1-.67-.67.67.67,0,0,1,.68-.67.68.68,0,0,1,.66.67A.66.66,0,0,1,12.49,7.2Z"/></g></g></svg>