<svg xmlns="http://www.w3.org/2000/svg" viewBox="0 0 24.9 22.39"><defs><style>.cls-1{fill:#6d1140;}.cls-2{fill:#fff;}</style></defs><g id="Layer_2" data-name="Layer 2"><g id="Layer_46" data-name="Layer 46"><path class="cls-1" d="M13.25,2a.68.68,0,0,1-1.12.08C9.81-.92,2.92-.67,3.06,4.9s7.25,10.66,9,11.87a.69.69,0,0,0,.78,0c1.75-1.21,8.87-6.42,9-11.87S15.33-1.28,13.25,2Z"/><path d="M0,21.23c0-.16.07-.32.11-.47a3.67,3.67,0,0,1,3-2.7l.21,0a2.23,2.23,0,0,1-1.84-2.45A2.19,2.19,0,1,1,4,18c2.38.51,3.41,2,3.29,4.4H0Z"/><path d="M12.14,18c-1.4-.45-2.05-1.39-1.84-2.58A2.19,2.19,0,1,1,12.8,18c2.38.51,3.41,2,3.29,4.39H8.82a4,4,0,0,1,.71-2.9A3.72,3.72,0,0,1,12.14,18Z"/><path d="M17.62,22.38a4,4,0,0,1,.71-2.9A3.75,3.75,0,0,1,20.89,18a2.3,2.3,0,0,1-1.45-1,2.16,2.16,0,0,1-.34-1.66A2.19,2.19,0,1,1,21.6,18c2.38.51,3.41,2,3.29,4.39Z"/><path class="cls-2" d="M13.18,9.38H11.72a6.23,6.23,0,0,1,.12-1.83,2.25,2.25,0,0,1,1-1.19.71.71,0,0,0,.31-.87A.76.76,0,0,0,12.37,5c-.35,0-.56.28-.67.72H10.28A2.12,2.12,0,0,1,11.44,3.8a2.18,2.18,0,0,1,2.22,3.75,1,1,0,0,0-.49.93C13.19,8.77,13.18,9.06,13.18,9.38Z"/><path class="cls-2" d="M13.16,12.3H11.74V10.86h1.42Z"/></g></g></svg>