<svg xmlns="http://www.w3.org/2000/svg" viewBox="0 0 14.85 14.87"><defs><style>.cls-1{fill:#6d1140;}</style></defs><g id="Layer_2" data-name="Layer 2"><g id="Layer_6" data-name="Layer 6"><path class="cls-1" d="M14.09,10.66l-1.89-1c-.46-.25-.82-.07-1.21.48-.87,1.19-1.3,1.43-2.37.83A11.22,11.22,0,0,1,6,8.84,11.58,11.58,0,0,1,3.9,6.23c-.6-1.07-.36-1.49.84-2.36.55-.4.73-.76.48-1.22L4.2.76c-.42-.81-1-.9-1.88-.61A4,4,0,0,0,0,3.13,12.74,12.74,0,0,0,3.9,11a12.79,12.79,0,0,0,7.83,3.9,4,4,0,0,0,3-2.33C15,11.67,14.9,11.08,14.09,10.66Z"/><path class="cls-1" d="M8.43,3.37a.72.72,0,0,0,0,1.44h0a1.59,1.59,0,0,1,1.13.47,1.55,1.55,0,0,1,.47,1.15.73.73,0,0,0,.72.73h0a.73.73,0,0,0,.73-.72,3,3,0,0,0-.9-2.18A3.06,3.06,0,0,0,8.43,3.37Zm4.31-1.24A6,6,0,0,0,8.44.35a.73.73,0,0,0-.72.73.72.72,0,0,0,.72.72h0a4.61,4.61,0,0,1,4.61,4.63.73.73,0,0,0,.72.73h0a.72.72,0,0,0,.72-.72A6.05,6.05,0,0,0,12.74,2.13Z"/></g></g></svg>