<svg xmlns="http://www.w3.org/2000/svg" viewBox="0 0 16.26 14.48"><defs><style>.cls-1{fill:#fff;}</style></defs><g id="Layer_2" data-name="Layer 2"><g id="Layer_52" data-name="Layer 52"><path class="cls-1" d="M16.26,3.05c-.05.3-.11.6-.16.9,0,.1,0,.2-.05.31L4.56,1.83c0-.19.06-.37.08-.55L4.73.72a.79.79,0,0,1,1-.7L10.19,1l5.32,1.13a.91.91,0,0,1,.75.64Z"/><path class="cls-1" d="M4.13,3.55l4.31.91a.57.57,0,0,0,.29,0c.6-.16,1.2-.33,1.81-.48a.74.74,0,0,1,.88.49,3.35,3.35,0,0,1,.16.54.2.2,0,0,0,.18.17l3.66.77.2,0c-.07.34-.14.68-.22,1-.15.75-.31,1.49-.47,2.23a.79.79,0,0,1-1,.65l-1-.21c.1.34.18.65.27,1a.79.79,0,0,1-.23.91,1.09,1.09,0,0,1-.39.19l-7,1.95-2.69.75a.81.81,0,0,1-1.09-.62L0,7.76A.8.8,0,0,1,.65,6.7l2.79-.77a.29.29,0,0,0,.24-.26c.13-.66.28-1.32.42-2Zm7.42,3.74L1.37,10.11a.62.62,0,0,0,0,.16l.93,3.36c.06.22.1.25.33.18l9.67-2.68c.23-.07.24-.1.18-.33-.19-.71-.39-1.43-.59-2.14C11.81,8.21,11.68,7.76,11.55,7.29ZM1,8.74,11.17,5.91c-.11-.38-.21-.74-.31-1.1s-.1-.25-.32-.19L2.44,6.87.82,7.32c-.1,0-.21.07-.17.21C.76,7.93.87,8.32,1,8.74ZM12.6,7.65c0,.25.08.37.26.42L14,8.31a.32.32,0,0,0,.39-.25c.09-.38.17-.77.24-1.16a.28.28,0,0,0-.21-.36c-.41-.1-.82-.18-1.24-.26a.26.26,0,0,0-.31.21C12.76,6.9,12.67,7.31,12.6,7.65Z"/><path class="cls-1" d="M2.37,11.56a.29.29,0,0,1,.24-.3l1.13-.32a.31.31,0,0,1,.4.22c.12.38.23.77.33,1.16a.3.3,0,0,1-.23.39c-.38.12-.76.22-1.15.32a.28.28,0,0,1-.38-.19c-.12-.4-.22-.79-.33-1.19A.25.25,0,0,1,2.37,11.56Z"/></g></g></svg>