<svg xmlns="http://www.w3.org/2000/svg" viewBox="0 0 6.25 5.47"><defs><style>.cls-1{fill:#6d1140;}</style></defs><g id="Layer_2" data-name="Layer 2"><g id="Layer_67" data-name="Layer 67"><path class="cls-1" d="M6.16,2.9l.09-.15L6.14,2.6A3.65,3.65,0,0,0,3.24.7a2.92,2.92,0,0,0-1.36.35L.82,0,.41.42l1,1A5.43,5.43,0,0,0,.13,2.6L0,2.78.15,3A4.35,4.35,0,0,0,3.3,4.83l.27,0a2.45,2.45,0,0,0,1-.29l1,1,.42-.42L5,4.2A4.57,4.57,0,0,0,6.16,2.9ZM3.51,4.23A3.44,3.44,0,0,1,.75,2.75a5.32,5.32,0,0,1,1-1l.58.58a.86.86,0,0,0-.08.36.85.85,0,0,0,.85.85.74.74,0,0,0,.36-.09l.59.59A2.25,2.25,0,0,1,3.51,4.23Zm1.11-.46-.71-.7A.94.94,0,0,0,4,2.73a.85.85,0,0,0-.84-.84A.81.81,0,0,0,2.79,2L2.32,1.5a2.25,2.25,0,0,1,.92-.21h0A3,3,0,0,1,5.55,2.78,4,4,0,0,1,4.62,3.77Z"/></g></g></svg>