<svg xmlns="http://www.w3.org/2000/svg" viewBox="0 0 11.07 13.08"><defs><style>.cls-1{fill:#fff;}</style></defs><g id="Layer_2" data-name="Layer 2"><g id="Layer_13" data-name="Layer 13"><path class="cls-1" d="M5.34,11.45,2.15,7.16a4.62,4.62,0,0,1-.92-2.75v-.1a4.31,4.31,0,1,1,8.61,0,4.61,4.61,0,0,1-1,2.91ZM5.54.93A3.39,3.39,0,0,0,2.16,4.31v.1a3.7,3.7,0,0,0,.73,2.2L5.38,9.94l2.7-3.31a3.64,3.64,0,0,0,.83-2.32A3.38,3.38,0,0,0,5.54.93Z"/><path class="cls-1" d="M5.54,2.12a2.31,2.31,0,0,0,0,4.62A1.9,1.9,0,0,0,6,6.7v-1a1.4,1.4,0,0,1-.41.06A1.38,1.38,0,1,1,6.92,4.43a1.34,1.34,0,0,1-.33.88H7.67a2.34,2.34,0,0,0,.18-.88A2.32,2.32,0,0,0,5.54,2.12Z"/><path class="cls-1" d="M8.14,9.78l-.71.85a8.62,8.62,0,0,1,2.33.5.24.24,0,0,1,0,.43,12.27,12.27,0,0,1-4.22.59,12.18,12.18,0,0,1-4.22-.59.23.23,0,0,1,0-.43,8.39,8.39,0,0,1,2.14-.49l-.7-.84C1.38,10,0,10.45,0,11.34c0,1.7,5,1.74,5.54,1.74s5.53,0,5.53-1.74C11.07,10.41,9.58,10,8.14,9.78Z"/></g></g></svg>