<svg xmlns="http://www.w3.org/2000/svg" viewBox="0 0 9.15 10.81"><defs><style>.cls-1{fill:#6d1140;}</style></defs><g id="Layer_2" data-name="Layer 2"><g id="Layer_15" data-name="Layer 15"><g id="Location"><path class="cls-1" d="M4.57,0A3.56,3.56,0,0,0,1,3.56v.08a3.8,3.8,0,0,0,.75,2.28L4.41,9.46,7.27,6a3.8,3.8,0,0,0,.86-2.41A3.56,3.56,0,0,0,4.57,0ZM6.68,5.48,4.44,8.21,2.39,5.46a3.06,3.06,0,0,1-.61-1.82V3.56a2.79,2.79,0,0,1,5.58,0A3,3,0,0,1,6.68,5.48Z"/><path class="cls-1" d="M4.57.77A2.8,2.8,0,0,0,1.78,3.56v.08a3.06,3.06,0,0,0,.61,1.82L4.44,8.21,6.68,5.48a3,3,0,0,0,.68-1.92A2.79,2.79,0,0,0,4.57.77ZM6.34,4.39H5.45a1.16,1.16,0,0,0,.26-.73A1.14,1.14,0,1,0,4.57,4.8a1.21,1.21,0,0,0,.34,0v.79a1.87,1.87,0,0,1-.34,0A1.91,1.91,0,1,1,6.48,3.66,1.94,1.94,0,0,1,6.34,4.39Z"/><path class="cls-1" d="M6.73,8.08l-.59.7a7,7,0,0,1,1.93.42.19.19,0,0,1,0,.35A9.81,9.81,0,0,1,4.58,10a9.83,9.83,0,0,1-3.49-.49.19.19,0,0,1,0-.35,6.57,6.57,0,0,1,1.77-.4l-.58-.7C1.14,8.28,0,8.64,0,9.37c0,1.4,4.11,1.44,4.58,1.44s4.57,0,4.57-1.44C9.15,8.61,7.92,8.25,6.73,8.08Z"/></g></g></g></svg>