<svg xmlns="http://www.w3.org/2000/svg" viewBox="0 0 6.59 6.59"><defs><style>.cls-1{fill:#6d1140;}</style></defs><g id="Layer_2" data-name="Layer 2"><g id="Layer_67" data-name="Layer 67"><path class="cls-1" d="M6.27,2.52,5.21,1.45a.28.28,0,0,0-.39,0,.26.26,0,0,0,0,.38L5.88,2.91,6,3H1.65a.28.28,0,1,0,0,.55H6a.34.34,0,0,1-.09.12L4.82,4.75a.27.27,0,0,0,0,.39.28.28,0,0,0,.39,0h0L6.27,4.07a1.09,1.09,0,0,0,0-1.55Z"/><path class="cls-1" d="M1.92,6H1.37a.82.82,0,0,1-.82-.82V1.37A.82.82,0,0,1,1.37.55h.55A.28.28,0,0,0,2.2.27.28.28,0,0,0,1.92,0H1.37A1.38,1.38,0,0,0,0,1.37V5.22A1.37,1.37,0,0,0,1.37,6.59h.55a.28.28,0,0,0,.28-.27A.29.29,0,0,0,1.92,6Z"/></g></g></svg>