<svg xmlns="http://www.w3.org/2000/svg" viewBox="0 0 9.77 10.18"><defs><style>.cls-1{fill:#6d1140;}</style></defs><g id="Layer_2" data-name="Layer 2"><g id="Layer_15" data-name="Layer 15"><g id="Manage_Photos" data-name="Manage Photos"><path class="cls-1" d="M6.13,1.53H1.51A1.51,1.51,0,0,0,0,3V8.66a1.51,1.51,0,0,0,1.51,1.52H6.13A1.52,1.52,0,0,0,7.65,8.66V3A1.52,1.52,0,0,0,6.13,1.53Zm.75,7.13a.76.76,0,0,1-.75.75H1.51a.75.75,0,0,1-.74-.75V7.81H6.88ZM3.77,6.06a1.16,1.16,0,0,1,1.08.77v0H2.94C3.12,6.43,3.4,6.06,3.77,6.06ZM3.46,4.35A.46.46,0,1,1,4,4.89.46.46,0,0,1,3.46,4.35ZM6.88,7h-1A2.89,2.89,0,0,0,4.83,5.45a1.35,1.35,0,0,0,.45-1.17,1.37,1.37,0,0,0-2.74.15,1.36,1.36,0,0,0,.4,1A2.93,2.93,0,0,0,1.92,7H.77V3a.74.74,0,0,1,.74-.74H6.13A.75.75,0,0,1,6.88,3Z"/><path class="cls-1" d="M6.88,7.81v.85a.76.76,0,0,1-.75.75H1.51a.75.75,0,0,1-.74-.75V7.81Z"/><path class="cls-1" d="M8.25,0H3.63A1.51,1.51,0,0,0,2.18,1.09H3A.74.74,0,0,1,3.63.77H8.25A.75.75,0,0,1,9,1.51V5.59H8.11V6.4H9v.74a.75.75,0,0,1-.75.74H8.11v.77h.14A1.52,1.52,0,0,0,9.77,7.14V1.51A1.52,1.52,0,0,0,8.25,0Z"/></g></g></g></svg>