<svg xmlns="http://www.w3.org/2000/svg" viewBox="0 0 8.3 8.18"><defs><style>.cls-1{fill:#fff;}</style></defs><g id="Layer_2" data-name="Layer 2"><g id="Layer_13" data-name="Layer 13"><path class="cls-1" d="M8.3,6.16H6.08a3.5,3.5,0,0,0-1.15-1,2.13,2.13,0,0,0,.52-1.39.37.37,0,0,0,0-.11,2.19,2.19,0,0,0-2-2.09,1.32,1.32,0,0,1,.1-.39,1.84,1.84,0,0,1,3.57.64,1.86,1.86,0,0,1-.77,1.49A3.1,3.1,0,0,1,8.3,6.16Z"/><path class="cls-1" d="M4.25,5.35A1.84,1.84,0,1,0,1.33,3.86,1.87,1.87,0,0,0,2,5.31,3.08,3.08,0,0,0,0,8.18H6.17A3.1,3.1,0,0,0,4.25,5.35Z"/></g></g></svg>