<svg xmlns="http://www.w3.org/2000/svg" viewBox="0 0 4.97 6.63"><defs><style>.cls-1{fill:#6d1140;}</style></defs><g id="Layer_2" data-name="Layer 2"><g id="Layer_55" data-name="Layer 55"><path class="cls-1" d="M2.34,0h.29l.14,0A1.64,1.64,0,0,1,4.13,1.47c0,.31,0,.61,0,.92v.1h.18A.61.61,0,0,1,5,3.14V6a.61.61,0,0,1-.65.65H.64A.61.61,0,0,1,0,6V3.09A.61.61,0,0,1,.52,2.5a3,3,0,0,1,.31,0V1.63A1.65,1.65,0,0,1,2,.09C2.08.05,2.21,0,2.34,0ZM3.59,2.49V1.84a2.3,2.3,0,0,0,0-.37A1.11,1.11,0,0,0,2.33.56a1.12,1.12,0,0,0-1,1.11v.75a.2.2,0,0,0,0,.07Zm-1.1,1.1A.57.57,0,0,0,2,4a.54.54,0,0,0,.2.61.13.13,0,0,1,0,.12v.53a.34.34,0,0,0,0,.1.29.29,0,0,0,.29.2.28.28,0,0,0,.25-.27V4.7a.12.12,0,0,1,.06-.12A.53.53,0,0,0,3,4,.56.56,0,0,0,2.49,3.59Z"/></g></g></svg>