<svg xmlns="http://www.w3.org/2000/svg" viewBox="0 0 9.9 9.9"><defs><style>.cls-1{fill:#6d1140;}</style></defs><g id="Layer_2" data-name="Layer 2"><g id="Layer_15" data-name="Layer 15"><g id="Professional"><path class="cls-1" d="M8.51,1.86H6.79V1.54A1.54,1.54,0,0,0,5.25,0H4.73A1.54,1.54,0,0,0,3.2,1.54v.32H1.39A1.39,1.39,0,0,0,0,3.25V8.51A1.39,1.39,0,0,0,1.39,9.9H8.51A1.39,1.39,0,0,0,9.9,8.51V3.25A1.39,1.39,0,0,0,8.51,1.86ZM4,1.54A.76.76,0,0,1,4.73.77h.52A.76.76,0,0,1,6,1.54v.32H4Zm5.16,7a.62.62,0,0,1-.62.62H3.7V6.29H2.93V9.13H1.39a.62.62,0,0,1-.62-.62V4.37H2.93V5.75H3.7V4.37H9.13Zm0-4.91H.77V3.25a.62.62,0,0,1,.62-.62H8.51a.62.62,0,0,1,.62.62Z"/><path class="cls-1" d="M9.13,3.25V3.6H.77V3.25a.62.62,0,0,1,.62-.62H8.51A.62.62,0,0,1,9.13,3.25Z"/></g></g></g></svg>