<svg xmlns="http://www.w3.org/2000/svg" xmlns:xlink="http://www.w3.org/1999/xlink" viewBox="0 0 32.73 25.59"><defs><style>.cls-1{isolation:isolate;}.cls-2{fill:url(#linear-gradient);}.cls-3,.cls-4,.cls-6,.cls-7{mix-blend-mode:overlay;}.cls-3,.cls-7{opacity:0.5;}.cls-3{fill:url(#linear-gradient-2);}.cls-4,.cls-6{opacity:0.3;}.cls-4{fill:url(#linear-gradient-3);}.cls-5{fill:url(#linear-gradient-4);}.cls-6{fill:url(#linear-gradient-5);}.cls-7{fill:url(#linear-gradient-6);}.cls-8{fill:url(#linear-gradient-7);}</style><linearGradient id="linear-gradient" x1="11.74" y1="3.77" x2="20.67" y2="3.77" gradientUnits="userSpaceOnUse"><stop offset="0" stop-color="#b69972"/><stop offset="0.13" stop-color="#b19568"/><stop offset="0.36" stop-color="#a3894f"/><stop offset="0.5" stop-color="#98803b"/><stop offset="0.83" stop-color="#ab915c"/><stop offset="1" stop-color="#b59a6f"/></linearGradient><linearGradient id="linear-gradient-2" x1="11.77" y1="2.01" x2="20.64" y2="2.01" xlink:href="#linear-gradient"/><linearGradient id="linear-gradient-3" x1="12.52" y1="4.13" x2="20.67" y2="4.13" xlink:href="#linear-gradient"/><linearGradient id="linear-gradient-4" x1="0" y1="15.97" x2="18.89" y2="15.97" xlink:href="#linear-gradient"/><linearGradient id="linear-gradient-5" x1="1.17" y1="15.72" x2="18.42" y2="15.72" xlink:href="#linear-gradient"/><linearGradient id="linear-gradient-6" x1="0" y1="19.93" x2="15.52" y2="19.93" xlink:href="#linear-gradient"/><linearGradient id="linear-gradient-7" x1="13.83" y1="15.92" x2="32.73" y2="15.92" xlink:href="#linear-gradient"/></defs><g class="cls-1"><g id="Layer_2" data-name="Layer 2"><g id="Layer_2-2" data-name="Layer 2"><path class="cls-2" d="M20.5,1.84h0a3,3,0,0,0-.41-.76,2.81,2.81,0,0,0-1.38-1,2.78,2.78,0,0,0-1.64,0,2.73,2.73,0,0,0-1,.56,2.56,2.56,0,0,0-.68-.42A2.66,2.66,0,0,0,12,1.55a2.72,2.72,0,0,0-.28,1.3A3.55,3.55,0,0,0,12,4.1a4.6,4.6,0,0,0,.63,1.08,6.62,6.62,0,0,0,.83.86,9.78,9.78,0,0,0,1.92,1.31,1.63,1.63,0,0,0,.75.18h.09a1.56,1.56,0,0,0,.42-.08,1,1,0,0,0,.2-.08l.1,0,0,0a9.85,9.85,0,0,0,1-.58,7.06,7.06,0,0,0,1.79-1.58A4,4,0,0,0,20.42,4a3.52,3.52,0,0,0,.18-.61l0-.13a3.83,3.83,0,0,0,.05-.6A3.06,3.06,0,0,0,20.5,1.84Zm-2.17-.65a1.55,1.55,0,0,1,.73.61,1.58,1.58,0,0,1,.18.43,1.75,1.75,0,0,1,.05.46s0,.09,0,.13v.1l0,.22v.07a1.89,1.89,0,0,1-.09.34,2.71,2.71,0,0,1-.43.78,5.83,5.83,0,0,1-1.43,1.34c-.28.19-.57.37-.88.54l-.05,0-.05,0-.06,0-.11,0a.41.41,0,0,1-.22,0,10.51,10.51,0,0,1-1.73-1.1,5.77,5.77,0,0,1-.7-.7,3.43,3.43,0,0,1-.5-.8,2.37,2.37,0,0,1-.2-.87A1.78,1.78,0,0,1,12.93,2a1.69,1.69,0,0,1,1.31-1l.22,0a1.74,1.74,0,0,1,1.33.63l.33.38.34-.38a1.75,1.75,0,0,1,.88-.53A1.68,1.68,0,0,1,18.33,1.19Z"/><path class="cls-3" d="M20.53,1.84h0a3,3,0,0,0-.42-.76,2.74,2.74,0,0,0-1.37-1,2.78,2.78,0,0,0-1.64,0,2.65,2.65,0,0,0-1,.57,2.3,2.3,0,0,0-.68-.43,2.65,2.65,0,0,0-3.4,1.28,2.61,2.61,0,0,0-.28,1.3A3.75,3.75,0,0,0,12,4a4.72,4.72,0,0,1-.08-.67A2.62,2.62,0,0,1,12.19,2,2.67,2.67,0,0,1,14.29.57a2.63,2.63,0,0,1,1.3.19,2.49,2.49,0,0,1,.69.43,2.53,2.53,0,0,1,1-.57,2.78,2.78,0,0,1,1.64,0,2.74,2.74,0,0,1,1.37,1,2.65,2.65,0,0,1,.39.69A3.25,3.25,0,0,0,20.53,1.84Z"/><path class="cls-4" d="M20.5,1.84h0a3.29,3.29,0,0,0-.41-.76,2.2,2.2,0,0,0-.33-.35,2.81,2.81,0,0,1,.27.55h0a3.45,3.45,0,0,1,.16.86,3,3,0,0,1-.05.6l0,.12a2.82,2.82,0,0,1-.18.61,4,4,0,0,1-.64,1.11,7.06,7.06,0,0,1-1.79,1.58,10.87,10.87,0,0,1-1,.58l-.05,0-.1.05-.2.07a1.49,1.49,0,0,1-.42.08h-.09a1.63,1.63,0,0,1-.75-.18A10.21,10.21,0,0,1,13,5.49c-.17-.16-.33-.3-.47-.45l.11.14a6.62,6.62,0,0,0,.83.86,9.78,9.78,0,0,0,1.92,1.31,1.63,1.63,0,0,0,.75.18h.09a1.56,1.56,0,0,0,.42-.08,1,1,0,0,0,.2-.08l.1,0,0,0a9.85,9.85,0,0,0,1-.58,7.06,7.06,0,0,0,1.79-1.58A4,4,0,0,0,20.42,4a3.52,3.52,0,0,0,.18-.61l0-.13a3.83,3.83,0,0,0,.05-.6A3.06,3.06,0,0,0,20.5,1.84Z"/><path class="cls-5" d="M15,24l0,0a10,10,0,0,1-6.7,1.45,9.79,9.79,0,0,1-6-3.28A9.52,9.52,0,0,1,.6,19.27,9.64,9.64,0,0,1,0,15.91a10,10,0,0,1,.14-1.64.17.17,0,0,0,0-.07l0-.09h0A10.83,10.83,0,0,1,.6,12.55,9.87,9.87,0,0,1,2.32,9.63,9.62,9.62,0,0,1,8.14,6.44a9.34,9.34,0,0,1,9.94,13,.48.48,0,0,1-.63.24h0a.48.48,0,0,1-.23-.62h0a8.37,8.37,0,0,0,.24-5.75,8.16,8.16,0,0,0-6.22-5.49,8.08,8.08,0,0,0-5.54,1,8.24,8.24,0,0,0-2.16,1.83,7.94,7.94,0,0,0-1.24,8A7.67,7.67,0,0,0,3.77,21a7.71,7.71,0,0,0,10,1.24,1.1,1.1,0,0,1,1.45.19l.08.11a1.12,1.12,0,0,1,.17.46A1.08,1.08,0,0,1,15,24Z"/><path class="cls-6" d="M15.26,22.4a8.62,8.62,0,1,1,2.18-2.67.48.48,0,0,1-.23-.62h0a8.37,8.37,0,0,0,.24-5.75,8.16,8.16,0,0,0-6.22-5.49,8.08,8.08,0,0,0-5.54,1,8.24,8.24,0,0,0-2.16,1.83,7.94,7.94,0,0,0-1.24,8A7.67,7.67,0,0,0,3.77,21a7.71,7.71,0,0,0,10,1.24A1.1,1.1,0,0,1,15.26,22.4Z"/><path class="cls-7" d="M15,24l0,0a10,10,0,0,1-6.7,1.45,9.79,9.79,0,0,1-6-3.28A9.52,9.52,0,0,1,.6,19.27,9.64,9.64,0,0,1,0,15.91a10,10,0,0,1,.14-1.64,9.39,9.39,0,0,0,4.63,9.39c4.9,3.07,9.39.31,10.74-.69A1.08,1.08,0,0,1,15,24Z"/><path class="cls-8" d="M17.69,7.85h0a9.91,9.91,0,0,1,6.7-1.45,9.76,9.76,0,0,1,6,3.27,10,10,0,0,1,1.76,2.95,9.74,9.74,0,0,1,.6,3.37,9,9,0,0,1-.15,1.64.2.2,0,0,1,0,.07s0,.08,0,.09h0a9.12,9.12,0,0,1-.43,1.55,9.5,9.5,0,0,1-1.72,2.93,9.74,9.74,0,0,1-2.63,2.11,9.33,9.33,0,0,1-3.19,1.07,9.21,9.21,0,0,1-3.35-.1,9.32,9.32,0,0,1-6.58-12.95.48.48,0,0,1,.63-.24h0a.48.48,0,0,1,.23.61h0a8.37,8.37,0,0,0-.25,5.75A8.24,8.24,0,0,0,18.82,23,8,8,0,0,0,24.36,24a7.94,7.94,0,0,0,2.67-1,8.13,8.13,0,0,0,2.17-1.83A8,8,0,0,0,31,16,7.75,7.75,0,0,0,18.92,9.68a1.1,1.1,0,0,1-1.45-.2.39.39,0,0,1-.08-.1,1,1,0,0,1-.18-.47A1.11,1.11,0,0,1,17.69,7.85Z"/><path class="cls-8" d="M17.47,9.48a8.65,8.65,0,1,1-2.18,2.68.48.48,0,0,1,.23.61h0a8.37,8.37,0,0,0-.25,5.75A8.24,8.24,0,0,0,18.82,23,8,8,0,0,0,24.36,24a7.94,7.94,0,0,0,2.67-1,8.13,8.13,0,0,0,2.17-1.83A8,8,0,0,0,31,16,7.75,7.75,0,0,0,18.92,9.68,1.1,1.1,0,0,1,17.47,9.48Z"/><path class="cls-8" d="M17.69,7.85h0a9.91,9.91,0,0,1,6.7-1.45,9.76,9.76,0,0,1,6,3.27,10,10,0,0,1,1.76,2.95,9.74,9.74,0,0,1,.6,3.37,9,9,0,0,1-.15,1.64A9.39,9.39,0,0,0,28,8.22c-4.89-3.06-9.39-.3-10.74.69A1.11,1.11,0,0,1,17.69,7.85Z"/></g></g></g></svg>