<svg xmlns="http://www.w3.org/2000/svg" viewBox="0 0 7.45 7.71"><defs><style>.cls-1{fill:#fff;}</style></defs><g id="Layer_2" data-name="Layer 2"><g id="Layer_13" data-name="Layer 13"><path class="cls-1" d="M3.32,0c.16,0,.32,0,.47.08A3,3,0,0,1,5.91,1.76a3,3,0,0,1-.24,3.13c0,.08-.11.15-.17.23l.06,0L7.3,7a.42.42,0,0,1,.09.53.4.4,0,0,1-.6.1L6.7,7.54,5,5.72l0,0a6.32,6.32,0,0,1-.57.3,3,3,0,0,1-2.54,0,3,3,0,0,1-1.7-2A3,3,0,0,1,.44,1.54a3.05,3.05,0,0,1,2-1.47L2.91,0Zm-.2.81a2.31,2.31,0,1,0,2.3,2.3A2.31,2.31,0,0,0,3.12.81Z"/></g></g></svg>