<svg xmlns="http://www.w3.org/2000/svg" viewBox="0 0 5.6 5.65"><defs><style>.cls-1{fill:#6d1140;}</style></defs><g id="Layer_2" data-name="Layer 2"><g id="Layer_55" data-name="Layer 55"><path class="cls-1" d="M4.92,2.82a2.33,2.33,0,0,0,0-.38L5.6,2,4.89.8l-.72.41A1.85,1.85,0,0,0,3.5.83V0H2.09V.83a2,2,0,0,0-.67.38L.71.8,0,2l.72.42a2,2,0,0,0,0,.77L0,3.62.71,4.85l.71-.42a2.26,2.26,0,0,0,.67.39v.83H3.5V4.82a2,2,0,0,0,.67-.39l.72.42L5.6,3.62l-.72-.41A2.58,2.58,0,0,0,4.92,2.82Zm-1.42,0a.7.7,0,0,1-.7.71.71.71,0,0,1-.71-.71.7.7,0,0,1,.71-.7A.7.7,0,0,1,3.5,2.82Z"/></g></g></svg>