<svg xmlns="http://www.w3.org/2000/svg" viewBox="0 0 19.6 15.96"><defs><style>.cls-1{fill:#6d1140;}</style></defs><g id="Layer_2" data-name="Layer 2"><g id="Layer_23" data-name="Layer 23"><path class="cls-1" d="M19.6,4.54v9.53l0,0A2.14,2.14,0,0,1,17.32,16h-15a2.58,2.58,0,0,1-.48,0A2.15,2.15,0,0,1,0,13.75V4.93A2.17,2.17,0,0,1,2.27,2.65H4.83V2a1.9,1.9,0,0,1,2-2h5.95a2,2,0,0,1,.55.06A1.91,1.91,0,0,1,14.77,2v.69H15c.84,0,1.68,0,2.52,0a2.13,2.13,0,0,1,2,1.55ZM9.8,14.1A4.79,4.79,0,1,0,5,9.31,4.8,4.8,0,0,0,9.8,14.1Z"/><path class="cls-1" d="M13,9.31A3.16,3.16,0,1,1,9.81,6.14,3.18,3.18,0,0,1,13,9.31Z"/></g></g></svg>