<svg xmlns="http://www.w3.org/2000/svg" viewBox="0 0 22.79 6.3"><defs><style>.cls-1{fill:#fff;}</style></defs><g id="Layer_2" data-name="Layer 2"><g id="Layer_52" data-name="Layer 52"><path class="cls-1" d="M9.19,6.29H8L9,2.55h6.12l.34-1.29H9.36c.08-.31.16-.59.23-.88a.05.05,0,0,0,0,0c0-.11,0-.25.11-.31S9.93,0,10,0h6.29c.42,0,.6.23.5.63-.22.86-.45,1.73-.68,2.59a.92.92,0,0,1-.81.56H10c-.1,0-.14,0-.17.12-.21.76-.43,1.51-.65,2.27Z"/><path class="cls-1" d="M1.57,0h1.2l-1.37,5H6.17a.13.13,0,0,0,.15-.12c.45-1.61.89-3.22,1.34-4.83l0-.09H8.87L8.61,1Q8,3.4,7.3,5.8a.57.57,0,0,1-.64.5h-6l-.27,0A.41.41,0,0,1,0,5.72c.13-.51.27-1,.41-1.52C.8,2.84,1.16,1.48,1.53.12A.42.42,0,0,1,1.57,0Z"/><path class="cls-1" d="M18.47,6.19,20.15,0l.7,1.4L21.23,0l1.56,3.11L19.58,6.21l0,0,.36-1.33L18.5,6.2Z"/><path class="cls-1" d="M19.11,0,17.43,6.26H16.24l.27-1Q17.19,2.7,17.85.16c0-.12.08-.16.21-.15Z"/></g></g></svg>